<svg width="127" height="114" viewBox="0 0 127 114" fill="none" xmlns="http://www.w3.org/2000/svg">
<path d="M2.23283 113V93.26H5.84483V101.492H15.9528V93.26H19.5648V113H15.9528V104.488H5.84483V113H2.23283ZM23.6364 113V98.86H27.1364V113H23.6364ZM23.4404 96.2V92.784H27.3324V96.2H23.4404ZM35.9772 113.28C34.7639 113.28 33.6439 113.14 32.6172 112.86C31.6092 112.561 30.7599 112.151 30.0692 111.628L31.0492 109.276C31.7585 109.761 32.5425 110.135 33.4012 110.396C34.2599 110.657 35.1279 110.788 36.0052 110.788C36.9385 110.788 37.6292 110.629 38.0772 110.312C38.5439 109.995 38.7772 109.565 38.7772 109.024C38.7772 108.595 38.6279 108.259 38.3292 108.016C38.0492 107.755 37.5919 107.559 36.9572 107.428L34.1572 106.896C32.9625 106.635 32.0479 106.187 31.4132 105.552C30.7972 104.917 30.4892 104.087 30.4892 103.06C30.4892 102.183 30.7225 101.408 31.1892 100.736C31.6745 100.064 32.3559 99.5413 33.2332 99.168C34.1292 98.776 35.1745 98.58 36.3692 98.58C37.4145 98.58 38.3945 98.72 39.3092 99C40.2425 99.28 41.0265 99.7 41.6612 100.26L40.6532 102.528C40.0745 102.061 39.4119 101.697 38.6652 101.436C37.9185 101.175 37.1905 101.044 36.4812 101.044C35.5105 101.044 34.8012 101.221 34.3532 101.576C33.9052 101.912 33.6812 102.351 33.6812 102.892C33.6812 103.303 33.8119 103.648 34.0732 103.928C34.3532 104.189 34.7825 104.385 35.3612 104.516L38.1612 105.048C39.4119 105.291 40.3545 105.72 40.9892 106.336C41.6425 106.933 41.9692 107.755 41.9692 108.8C41.9692 109.733 41.7172 110.536 41.2132 111.208C40.7092 111.88 40.0092 112.393 39.1132 112.748C38.2172 113.103 37.1719 113.28 35.9772 113.28ZM50.8758 113.28C49.1958 113.28 47.9265 112.841 47.0678 111.964C46.2092 111.087 45.7798 109.771 45.7798 108.016V101.492H43.0638V98.86H45.7798V95.248L49.2798 94.352V98.86H53.0598V101.492H49.2798V107.792C49.2798 108.763 49.4665 109.444 49.8398 109.836C50.2132 110.228 50.7265 110.424 51.3798 110.424C51.7345 110.424 52.0332 110.396 52.2758 110.34C52.5372 110.284 52.7892 110.209 53.0318 110.116V112.888C52.7145 113.019 52.3598 113.112 51.9678 113.168C51.5945 113.243 51.2305 113.28 50.8758 113.28ZM61.6845 113.28C60.2285 113.28 58.9685 112.981 57.9045 112.384C56.8405 111.787 56.0098 110.937 55.4125 109.836C54.8338 108.735 54.5445 107.428 54.5445 105.916C54.5445 104.404 54.8338 103.107 55.4125 102.024C56.0098 100.923 56.8405 100.073 57.9045 99.476C58.9685 98.8787 60.2285 98.58 61.6845 98.58C63.1405 98.58 64.4005 98.8787 65.4645 99.476C66.5472 100.073 67.3778 100.923 67.9565 102.024C68.5538 103.107 68.8525 104.404 68.8525 105.916C68.8525 107.428 68.5538 108.735 67.9565 109.836C67.3778 110.937 66.5472 111.787 65.4645 112.384C64.4005 112.981 63.1405 113.28 61.6845 113.28ZM61.6845 110.592C62.7858 110.592 63.6632 110.209 64.3165 109.444C64.9698 108.66 65.2965 107.484 65.2965 105.916C65.2965 104.348 64.9698 103.181 64.3165 102.416C63.6632 101.651 62.7858 101.268 61.6845 101.268C60.5832 101.268 59.7058 101.651 59.0525 102.416C58.3992 103.181 58.0725 104.348 58.0725 105.916C58.0725 107.484 58.3992 108.66 59.0525 109.444C59.7058 110.209 60.5832 110.592 61.6845 110.592ZM71.8428 113V102.472C71.8428 101.875 71.8241 101.268 71.7868 100.652C71.7681 100.036 71.7215 99.4387 71.6468 98.86H75.0348L75.4268 102.724H74.8668C75.0535 101.791 75.3615 101.016 75.7908 100.4C76.2388 99.784 76.7801 99.3267 77.4148 99.028C78.0495 98.7293 78.7401 98.58 79.4868 98.58C79.8228 98.58 80.0935 98.5987 80.2988 98.636C80.5041 98.6547 80.7095 98.7013 80.9148 98.776L80.8868 101.856C80.5321 101.707 80.2241 101.613 79.9628 101.576C79.7201 101.539 79.4121 101.52 79.0388 101.52C78.2361 101.52 77.5548 101.688 76.9948 102.024C76.4535 102.36 76.0428 102.827 75.7628 103.424C75.5015 104.021 75.3708 104.703 75.3708 105.468V113H71.8428ZM82.863 113V98.86H86.363V113H82.863ZM82.667 96.2V92.784H86.559V96.2H82.667ZM96.6598 113.28C95.2038 113.28 93.9251 112.981 92.8238 112.384C91.7411 111.787 90.9011 110.937 90.3038 109.836C89.7064 108.716 89.4078 107.391 89.4078 105.86C89.4078 104.329 89.7064 103.023 90.3038 101.94C90.9198 100.857 91.7691 100.027 92.8518 99.448C93.9344 98.8693 95.2038 98.58 96.6598 98.58C97.5931 98.58 98.4984 98.7293 99.3758 99.028C100.272 99.308 101 99.7187 101.56 100.26L100.496 102.696C99.9918 102.229 99.4224 101.884 98.7878 101.66C98.1718 101.417 97.5651 101.296 96.9678 101.296C95.7171 101.296 94.7371 101.688 94.0278 102.472C93.3371 103.256 92.9918 104.395 92.9918 105.888C92.9918 107.381 93.3371 108.529 94.0278 109.332C94.7371 110.135 95.7171 110.536 96.9678 110.536C97.5464 110.536 98.1438 110.424 98.7598 110.2C99.3944 109.976 99.9731 109.631 100.496 109.164L101.56 111.572C100.981 112.113 100.244 112.533 99.3478 112.832C98.4704 113.131 97.5744 113.28 96.6598 113.28ZM109.651 113.28C108.419 113.28 107.336 112.991 106.403 112.412C105.47 111.815 104.742 110.965 104.219 109.864C103.696 108.763 103.435 107.447 103.435 105.916C103.435 104.385 103.696 103.079 104.219 101.996C104.742 100.895 105.47 100.055 106.403 99.476C107.336 98.8787 108.419 98.58 109.651 98.58C110.846 98.58 111.891 98.8787 112.787 99.476C113.702 100.055 114.308 100.839 114.607 101.828H114.299L114.607 98.86H117.967C117.911 99.4387 117.855 100.027 117.799 100.624C117.762 101.221 117.743 101.809 117.743 102.388V113H114.271L114.243 110.088H114.579C114.28 111.059 113.674 111.833 112.759 112.412C111.844 112.991 110.808 113.28 109.651 113.28ZM110.631 110.592C111.732 110.592 112.619 110.209 113.291 109.444C113.963 108.66 114.299 107.484 114.299 105.916C114.299 104.348 113.963 103.181 113.291 102.416C112.619 101.651 111.732 101.268 110.631 101.268C109.53 101.268 108.643 101.651 107.971 102.416C107.299 103.181 106.963 104.348 106.963 105.916C106.963 107.484 107.29 108.66 107.943 109.444C108.615 110.209 109.511 110.592 110.631 110.592ZM121.554 113V92.392H125.054V113H121.554Z" fill="white"/>
<g clip-path="url(#clip0_1_176)">
<path d="M66.7266 69.165C67.7362 68.0719 68.1701 66.7315 68.1701 65.2496C68.1701 63.7634 67.7447 62.4139 66.7266 61.3214C65.7348 60.2557 64.4818 59.7644 63.0383 59.7644C61.5905 59.7644 60.324 60.2423 59.3237 61.3037C58.3007 62.3919 57.8802 63.7372 57.8802 65.2234C57.8802 66.7187 58.3007 68.081 59.328 69.1784C60.324 70.2441 61.5771 70.7354 63.0249 70.7354C64.4769 70.7354 65.7342 70.2398 66.7266 69.165ZM61.4044 67.3999C60.9216 66.7846 60.7757 66.0016 60.7757 65.2362C60.7757 64.4757 60.935 63.7231 61.4221 63.1262C61.8383 62.6129 62.3651 62.3565 63.0249 62.3565C63.6889 62.3565 64.2291 62.6001 64.6411 63.1262C65.1239 63.7365 65.274 64.5019 65.274 65.263C65.274 66.0241 65.1147 66.7846 64.6368 67.3907C64.2205 67.9168 63.6889 68.1695 63.0249 68.1695C62.3565 68.1695 61.8206 67.926 61.4044 67.3999Z" fill="white"/>
<path d="M56.3348 59.9414H51.137C50.783 59.9414 50.473 60.0781 50.2294 60.3351C49.9902 60.5871 49.862 60.8923 49.862 61.242C49.862 61.6089 49.9902 61.9275 50.2514 62.1838C50.4949 62.4139 50.7873 62.5512 51.1236 62.5512H52.337V69.2578C52.337 69.6423 52.4786 69.9786 52.7484 70.2484L52.7532 70.2575L52.7618 70.2618C53.045 70.5139 53.3819 70.6689 53.7628 70.6689C54.1387 70.6689 54.4665 70.5182 54.7277 70.2484C54.9932 69.9743 55.1348 69.6423 55.1348 69.2578V62.5647H56.3348C56.6845 62.5647 56.9946 62.4365 57.2424 62.1838C57.4902 61.9317 57.6232 61.6223 57.6232 61.2683C57.6232 60.91 57.4951 60.5914 57.2467 60.3351C56.9989 60.0781 56.6888 59.9414 56.3348 59.9414Z" fill="white"/>
<path d="M46.2664 67.7667C46.0412 67.9394 45.7665 68.0011 45.4827 68.0011C45.0445 68.0011 44.5354 67.8467 44.1283 67.6959C43.8403 67.5946 43.3532 67.4176 43.0523 67.4176C42.6977 67.4176 42.3882 67.55 42.1532 67.8155C41.9097 68.0853 41.8035 68.4125 41.8035 68.7707V68.8415C41.8035 69.5227 42.3394 69.9518 42.9015 70.2215C43.6633 70.5847 44.5397 70.6952 45.3722 70.6952C46.4526 70.6952 47.5018 70.4339 48.33 69.6997C49.1045 69.01 49.4677 68.125 49.4677 67.0856C49.4677 65.9881 49.0429 65.0946 48.1036 64.5196C47.5237 64.1479 46.7315 63.9001 46.0717 63.7103C45.8062 63.6395 45.5407 63.5596 45.2837 63.4625C45.1952 63.4314 45.0268 63.3697 44.9468 63.3118C44.8632 63.241 44.7655 63.1439 44.7655 63.0243C44.7655 62.8564 44.8498 62.7411 44.978 62.644C45.1641 62.5067 45.3808 62.4536 45.6066 62.4536C45.8233 62.4536 46.1028 62.5244 46.3103 62.5824L46.7046 62.7191C46.9482 62.7991 47.2717 62.901 47.528 62.901C47.8869 62.901 48.1921 62.7594 48.4313 62.4939C48.6706 62.2327 48.7902 61.914 48.7902 61.56C48.7902 60.9454 48.3697 60.5249 47.86 60.2466C47.2271 59.906 46.4965 59.7906 45.7885 59.7906C44.7478 59.7906 43.778 60.0647 42.9766 60.7464C42.224 61.3965 41.8432 62.2327 41.8432 63.2324C41.8432 64.1833 42.1935 64.9756 42.9943 65.4974C43.2336 65.6567 43.5259 65.7806 43.7957 65.8868C44.19 66.037 44.5971 66.1651 45.0048 66.2848C45.3808 66.3952 45.8239 66.5234 46.1822 66.687C46.2798 66.7316 46.4123 66.8066 46.4703 66.9037C46.5234 67.0013 46.5453 67.1161 46.5453 67.2265C46.5453 67.4573 46.4526 67.6251 46.2664 67.7667Z" fill="white"/>
<path d="M81.7932 70.2527C82.0679 70.5182 82.3957 70.6689 82.7759 70.6689C83.1659 70.6689 83.5065 70.5182 83.772 70.2307C84.0332 69.9518 84.1754 69.6161 84.1754 69.2309V65.6476L86.7743 62.091C86.9599 61.839 87.0484 61.5515 87.0484 61.2414C87.0484 60.852 86.8982 60.5163 86.615 60.2508C86.3446 59.9896 86.0126 59.8437 85.636 59.8437C85.1538 59.8437 84.7638 60.0561 84.494 60.4541L82.7759 62.9181L81.0718 60.4541C80.8057 60.0512 80.412 59.8437 79.9292 59.8437C79.5349 59.8437 79.1809 59.981 78.902 60.2643C78.6365 60.5298 78.4857 60.8612 78.4857 61.2414C78.4857 61.5558 78.6054 61.8432 78.7915 62.091L81.3636 65.6476V69.2309C81.3636 69.6289 81.5058 69.9786 81.7932 70.2527Z" fill="white"/>
<path d="M77.5823 63.3563C77.5823 62.3828 77.2418 61.5472 76.5112 60.8966C75.7678 60.2331 74.851 59.9591 73.8592 59.9591H71.2914C70.8972 59.9591 70.5517 60.0958 70.277 60.3747C69.9938 60.6579 69.8608 61.0119 69.8608 61.4099V69.2309C69.8608 69.6246 69.9981 69.9701 70.277 70.2484L70.2819 70.2576L70.2862 70.2618C70.5737 70.5139 70.9057 70.6689 71.2908 70.6689C71.6674 70.6689 72.0037 70.5365 72.2741 70.2661C72.5439 69.9921 72.6769 69.6557 72.6769 69.2706V67.0105L75.1788 70.0891C75.462 70.4388 75.8251 70.6689 76.2811 70.6689C76.6619 70.6689 77.0025 70.5316 77.2863 70.271L77.2949 70.2661L77.2991 70.2576C77.5561 69.9743 77.7068 69.6423 77.7068 69.2578C77.7068 68.9081 77.5781 68.6029 77.3437 68.3423L75.4577 66.2671C75.7763 66.1786 76.0998 66.0596 76.3519 65.8868C77.2198 65.2893 77.5823 64.3957 77.5823 63.3563ZM74.5141 64.024C74.3328 64.1968 74.1247 64.2853 73.872 64.2853H72.6904V62.5824H73.8458C74.0978 62.5824 74.3237 62.6483 74.5056 62.8345L74.5098 62.8387L74.519 62.843C74.6911 62.998 74.7845 63.1793 74.7845 63.4137C74.7845 63.6572 74.6911 63.8519 74.5141 64.024Z" fill="white"/>
<path d="M32.9358 70.271C33.2055 70.545 33.5418 70.6824 33.927 70.6824C34.317 70.6824 34.6533 70.5365 34.9237 70.2533C35.1849 69.9786 35.3265 69.6515 35.3265 69.2712V61.2683C35.3265 60.8746 35.1892 60.5298 34.9145 60.2466C34.6447 59.9768 34.3127 59.8309 33.9276 59.8309C33.5424 59.8309 33.2104 59.9945 32.9443 60.2728C32.6831 60.5517 32.528 60.8838 32.528 61.2683V63.8251H28.8574V61.2683C28.8574 60.8789 28.7207 60.5383 28.4546 60.26C28.1891 59.9811 27.857 59.8309 27.4719 59.8309C27.0819 59.8309 26.7456 59.9902 26.4752 60.2728C26.2097 60.5517 26.0589 60.8838 26.0589 61.2683V69.2712C26.0589 69.66 26.1963 70.0006 26.4752 70.2753C26.7498 70.545 27.0862 70.6824 27.4719 70.6824C27.857 70.6824 28.1933 70.545 28.4588 70.271C28.7292 69.9969 28.8574 69.6564 28.8574 69.2712V66.4355H32.528V69.2706C32.528 69.66 32.6654 69.9963 32.9358 70.271Z" fill="white"/>
<path d="M37.7258 60.2728C37.4646 60.5517 37.3095 60.8838 37.3095 61.2683V69.2578C37.3095 69.6423 37.4469 69.9835 37.7172 70.2575C37.987 70.5316 38.3282 70.6689 38.7091 70.6689C39.0942 70.6689 39.4305 70.5316 39.7009 70.2575C39.9707 69.9878 40.108 69.6557 40.108 69.2706V61.2683C40.108 60.8789 39.9749 60.5383 39.7052 60.2594C39.4397 59.981 39.1076 59.8303 38.7219 59.8303C38.3325 59.8303 37.9962 59.9902 37.7258 60.2728Z" fill="white"/>
<path d="M93.4246 24.9573H34.7814L92.3553 13.8269C92.7654 13.7476 93.128 13.5083 93.3618 13.1623C93.5961 12.8156 93.6828 12.3908 93.6029 11.98L91.8633 2.99564C91.6973 2.14115 90.8709 1.58207 90.017 1.74808L73.518 4.93717C73.4838 4.94266 73.449 4.94877 73.4149 4.9567L23.54 14.5972C23.5345 14.5984 23.5296 14.599 23.5241 14.6003L16.2768 16.001C15.866 16.081 15.5041 16.3196 15.2703 16.6663C15.036 17.0124 14.9493 17.4378 15.0286 17.8479L16.7401 26.684V76.7072C16.7401 77.5776 17.4456 78.2831 18.316 78.2831H48.4008C49.2712 78.2831 49.9768 77.5776 49.9768 76.7072C49.9768 75.8374 49.2712 75.1319 48.4008 75.1319H19.8913V37.2614H26.8865L26.8908 37.262L26.8933 37.2614H39.5935L39.5977 37.262L39.6002 37.2614H52.3052L52.3089 37.262L52.312 37.2614H65.0122L65.0158 37.262L65.0189 37.2614H77.7191L77.7227 37.262L77.7258 37.2614H91.8487V75.1319H62.5866C61.7163 75.1319 61.0107 75.8374 61.0107 76.7072C61.0107 77.5776 61.7163 78.2831 62.5866 78.2831H93.4246C94.2944 78.2831 94.9999 77.5776 94.9999 76.7072V26.5332C94.9999 25.6629 94.2944 24.9573 93.4246 24.9573ZM68.1707 34.1101L72.6763 28.1086H81.4422L76.9366 34.1101H68.1707ZM55.4626 34.1101L59.9652 28.1086H68.7353L64.2297 34.1101H55.4626ZM42.752 34.1101L47.2576 28.1086H56.0253L51.5228 34.1101H42.752ZM30.0451 34.1101L34.5507 28.1086H43.3172L38.8116 34.1101H30.0451ZM19.8913 26.5332C19.8913 25.6458 20.6146 24.9237 21.5039 24.9237C22.3925 24.9237 23.1158 25.6458 23.1158 26.5332C23.1158 27.4207 22.3925 28.1427 21.5039 28.1427C20.6146 28.1427 19.8913 27.4207 19.8913 26.5332ZM35.9466 15.409L42.2485 20.304L33.8818 21.9214L27.583 17.0258L35.9466 15.409ZM48.4228 12.9975L54.7241 17.8919L46.3623 19.5087L40.0604 14.6137L48.4228 12.9975ZM60.899 10.586L67.1997 15.4804L58.8378 17.0966L52.5366 12.2028L60.899 10.586ZM73.3795 8.17386L79.6765 13.0683L71.3134 14.6851L65.0128 9.79069L73.3795 8.17386ZM90.2093 11.0321L83.789 12.273L77.492 7.37858L89.0686 5.14103L90.2093 11.0321ZM23.4704 17.8205L29.7698 22.7167L25.2447 23.5913C24.3719 22.4848 23.02 21.7725 21.5039 21.7725C20.6365 21.7725 19.8242 22.0063 19.1229 22.4121L18.4228 18.7964L23.4704 17.8205ZM19.8913 31.0126C20.3955 31.1945 20.9381 31.294 21.5039 31.294C23.5778 31.294 25.3454 29.9616 25.9979 28.1086H30.6103L26.1047 34.1101H19.8913V31.0126ZM80.8776 34.1101L85.3832 28.1086H91.8487V34.1101H80.8776Z" fill="white"/>
<path d="M85.4901 54.0405C86.3604 54.0405 87.066 53.3356 87.066 52.4652V46.0199C87.066 45.1496 86.3604 44.444 85.4901 44.444H25.3643C24.494 44.444 23.7884 45.1496 23.7884 46.0199V52.4652C23.7884 53.3356 24.494 54.0405 25.3643 54.0405H85.4901ZM83.9148 50.8893H66.3849V47.5952H83.9148V50.8893ZM63.2336 50.8893H45.0177V47.5952H63.2336V50.8893ZM26.9403 47.5952H41.8664V50.8893H26.9403V47.5952Z" fill="white"/>
<path d="M55.5511 75.1317H55.5249C54.6545 75.1317 53.9489 75.8367 53.9489 76.7071C53.9489 77.5774 54.6545 78.283 55.5249 78.283H55.5511C56.4215 78.283 57.127 77.5774 57.127 76.7071C57.127 75.8367 56.4215 75.1317 55.5511 75.1317Z" fill="white"/>
</g>
<defs>
<clipPath id="clip0_1_176">
<rect width="80" height="80" fill="white" transform="translate(15)"/>
</clipPath>
</defs>
</svg>
